<svg id="Livello_1" data-name="Livello 1" xmlns="http://www.w3.org/2000/svg" viewBox="0 0 501 481.88">
  <defs>
    <style>
      .cls-1 {
        fill: #f8f7f2;
      }

      .cls-2 {
        fill: #1d1d1b;
      }

      .cls-3 {
        fill: #183254;
      }

      .cls-4 {
        fill: #00ade6;
      }
    </style>
  </defs>
  <title>logo512</title>
  <g>
    <g>
      <path class="cls-1" d="M482.18,403.31c-48.83,79.86-237,99.94-329.57,80.3C-25.55,445.79-6,271.27,75.68,153.34c71.36-103,223-197,333.83-78.38C476.1,146.24,523.41,335.89,482.18,403.31Z" transform="translate(-5.5 -15.06)"/>
      <path class="cls-2" d="M229.8,491.35c-28.5,0-55.29-2.31-77.35-7C88,470.68,45.52,438.88,26.05,389.83c-13.21-33.27-14.88-74-4.83-117.81,9.29-40.51,27.9-81.7,53.83-119.12a363.5,363.5,0,0,1,88.8-89.23C201.67,37.35,241.22,22,278.21,19.33c49.93-3.64,94.31,14.9,131.86,55.11,31.59,33.81,61.08,97.41,77,166,16.45,71,14.89,132.1-4.19,163.3-21.9,35.81-74.78,63.44-148.9,77.81A559.42,559.42,0,0,1,229.8,491.35ZM290.38,20.41q-6,0-12.06.45c-53.4,3.89-138.34,41-202,132.92C50.49,191,32,232,22.71,272.37c-10,43.49-8.33,83.92,4.76,116.9,19.27,48.54,61.43,80,125.3,93.58C201,493.09,272,492,333.64,480c73.7-14.29,126.22-41.67,147.89-77.11l.65.4-.65-.4c18.87-30.86,20.37-91.48,4-162.15C469.71,172.44,440.37,109.11,409,75.48,374.78,38.9,334.94,20.41,290.38,20.41Z" transform="translate(-5.5 -15.06)"/>
    </g>
    <path class="cls-3" d="M491.74,230.45C475.69,176,446.39,117.19,415.27,77c-32.84-42.37-73.18-63.21-119.92-61.93-24.3.67-48.79,7.46-72.43,18.43-63.37,20.77-123.26,75-160,128.26C9.62,238.92-8.5,329.72,16.72,393.12c11.11,27.93,30.3,50.52,56.63,67.07,18.69,11.75,41,20.46,66.54,25.89,43,9.12,112,15.6,176.72,6.42,31.17-4.43,58.24-12.09,80.94-22.67,44.38-14.84,75.93-38.76,92.4-70.67C517,346.67,505.88,278.44,491.74,230.45ZM393.39,459.18c-70.79,23.45-164.34,19.38-226.82,6.12-58.5-12.42-97.17-41.36-114.94-86-23.86-60-6.21-146.56,44.95-220.64C135.72,102,183.41,64.63,227,44.51c16-5.22,31-8,44.32-8.37a120.83,120.83,0,0,1,69,18.77Q362.84,69,382,93.65c58.76,75.82,117,225.71,73.56,309.92C442.72,428.34,420.64,446.39,393.39,459.18ZM27.31,388.9C3.46,329,21.1,242.35,72.26,168.27a373.2,373.2,0,0,1,42.36-51,371,371,0,0,0-27.42,34.9C33.93,229.29,15.81,320.09,41,383.49,52.15,411.42,71.33,434,97.67,450.57c18.69,11.74,41,20.45,66.53,25.88a508.38,508.38,0,0,0,59,8.56,517.12,517.12,0,0,1-81-10.08C83.75,462.51,45.08,433.57,27.31,388.9Zm452.51,5a109.73,109.73,0,0,1-24.54,31.29,116.64,116.64,0,0,0,10.36-16.44c27.09-52.49,15.92-120.72,1.78-168.72C451.37,185.6,422.07,126.82,391,86.67c-26.46-34.14-57.8-54.27-93.42-60.15a120.63,120.63,0,0,1,67.15,18.76Q387.16,59.4,406.26,84C465,159.85,523.28,309.73,479.82,393.94Z" transform="translate(-5.5 -15.06)"/>
    <path class="cls-4" d="M106.52,384.24c-78.27-93.36,24.23-251.53,105-306.14C316.66,7,390.8,108.19,420.9,200.15c21.66,66.17,56.65,180-27.27,219.17C313.6,456.71,167.59,457.09,106.52,384.24Z" transform="translate(-5.5 -15.06)"/>
    <path class="cls-3" d="M379.93,248.57a10.4,10.4,0,0,0-14.45-2.42l-109.74,78-86-66.12A10.38,10.38,0,0,0,157,274.45l88.81,69.48,0,0,.56.79a10.4,10.4,0,0,0,14.51,2.38L377.57,263A10.38,10.38,0,0,0,379.93,248.57Z" transform="translate(-5.5 -15.06)"/>
  </g>
</svg>
