<svg id="Livello_1" data-name="Livello 1" xmlns="http://www.w3.org/2000/svg" viewBox="0 0 592.36 1013">
  <defs>
    <style>
      .cls-1 {
        fill: #fffffb;
      }

      .cls-2 {
        fill: #183254;
      }

      .cls-3 {
        fill: #00ace8;
      }
    </style>
  </defs>
  <title>logo</title>
  <g>
    <path class="cls-1" d="M779.43,464.56C721.7,559,499.18,582.72,389.75,559.49c-210.64-44.71-187.57-251.06-91-390.49C383.17,47.23,562.45-64,693.51,76.33,772.24,160.61,828.18,384.84,779.43,464.56Z" transform="translate(-215.82 -5.5)"/>
    <path class="cls-2" d="M790.73,260.17c-19-64.41-53.62-133.91-90.41-181.38-38.83-50.1-86.54-74.74-141.8-73.22-28.72.78-57.68,8.82-85.63,21.78C398,51.91,327.15,116,283.66,179c-63,91.19-84.4,198.55-54.58,273.5,13.14,33,35.82,59.74,67,79.31,22.1,13.89,48.45,24.19,78.67,30.6,50.84,10.79,132.43,18.45,209,7.6,36.86-5.23,68.87-14.29,95.7-26.81,52.48-17.54,89.78-45.82,109.26-83.55C820.65,397.59,807.44,316.91,790.73,260.17ZM674.44,530.62c-83.69,27.72-194.3,22.91-268.18,7.23-69.17-14.68-114.89-48.9-135.9-101.71C242.15,365.25,263,262.86,323.5,175.27c46.29-67,102.67-111.16,154.24-134.94,18.87-6.18,36.63-9.47,52.4-9.91a143,143,0,0,1,81.63,22.19q26.55,16.71,49.15,45.82c69.47,89.65,138.35,266.86,87,366.43C732.77,494.15,706.66,515.5,674.44,530.62Zm-432.83-83.1c-28.21-70.88-7.34-173.28,53.14-260.87a442.37,442.37,0,0,1,50.08-60.3,442.15,442.15,0,0,0-32.42,41.26c-63,91.2-84.4,198.56-54.58,273.51,13.14,33,35.82,59.73,67,79.31,22.1,13.89,48.45,24.19,78.67,30.6a599,599,0,0,0,69.77,10.13,610.33,610.33,0,0,1-95.72-11.93C308.34,534.55,262.62,500.33,241.61,447.52Zm535,6a129.48,129.48,0,0,1-29,37A136.93,136.93,0,0,0,759.87,471C791.9,409,778.69,328.3,762,271.55c-19-64.4-53.62-133.9-90.41-181.38C640.29,49.8,603.23,26,561.11,19.05a142.84,142.84,0,0,1,79.41,22.18Q667.07,57.93,689.67,87C759.14,176.69,828,353.91,776.64,453.47Z" transform="translate(-215.82 -5.5)"/>
    <path class="cls-3" d="M335.26,442C242.71,331.63,363.91,144.6,459.38,80,583.72-4,671.38,115.62,707,224.34c25.61,78.25,67,212.79-32.24,259.15C580.11,527.69,407.47,528.14,335.26,442Z" transform="translate(-215.82 -5.5)"/>
    <path class="cls-2" d="M658.54,281.6a12.29,12.29,0,0,0-17.09-2.86L511.69,371,410.05,292.81A12.27,12.27,0,0,0,395,312.2l105,82.15,0,0,.67.92a12.3,12.3,0,0,0,17.15,2.82l137.9-99.44A12.3,12.3,0,0,0,658.54,281.6Z" transform="translate(-215.82 -5.5)"/>
    <g>
      <g>
        <path class="cls-2" d="M341.49,811.43h-87V619.7h84.07v17.69H275.12v67.85h51.62V723H275.12v70.78h66.37Z" transform="translate(-215.82 -5.5)"/>
        <path class="cls-2" d="M477.18,811.43h-8.85l-7.67-18.88a48.71,48.71,0,0,1-16.23,17,40.44,40.44,0,0,1-22.12,6.34q-42.48,0-42.47-41.29v-29.5q0-41.29,42.47-41.29h34.22V655.4q0-10.62-6.79-16.53T429.69,633q-26.26,0-26.26,22.43v17.39H382.78V656.57q0-19.76,11.66-30.54t35.25-10.76q23.6,0,35.54,10.76t11.95,30.54Zm-20.65-90H422.31q-12.39,0-17.11,6.2t-4.72,17.4v29.5q0,11.22,4.72,17.4t17.11,6.2q12.39,0,23-9.59t11.21-19Z" transform="translate(-215.82 -5.5)"/>
        <path class="cls-2" d="M627,774.56q0,41.31-49.85,41.29t-49.85-41.29V749.49H548v26.25q0,10.62,7.37,16.52t21.83,5.9q14.45,0,21.83-5.9t7.37-16.09q0-10.17-2.21-16.21t-9-12.84l-51.92-50.73q-9.15-9.15-12.54-17.85t-3.39-22q0-19.76,12.24-30.54t37-10.76q47.49,0,47.49,41.3v25.08H603.42V655.4q0-10.62-6.93-16.53T575.7,633q-13.87,0-20.8,5.9T548,655.1q0,10.32,2.06,16.22t9.15,12.39L612,734.45q8.55,9.43,11.8,18.13T627,774.56Z" transform="translate(-215.82 -5.5)"/>
        <path class="cls-2" d="M730.55,811.43H709.9V757.16q-40.11-4.44-40.12-40.72V619.7h20.65v96.74q0,23.61,29.5,23.6t29.5-23.6V619.7h20.64v96.74q0,36.3-39.52,40.72Z" transform="translate(-215.82 -5.5)"/>
      </g>
      <polygon class="cls-2" points="127.48 1008.8 127.48 831.76 112.88 831.76 112.88 912.98 52.71 912.98 52.71 831.76 38.11 831.76 38.11 1008.8 52.71 1008.8 52.71 924.79 112.88 924.79 112.88 1008.8 127.48 1008.8"/>
      <path class="cls-2" d="M445.08,833.06c-15.09,0-26.51,3.24-33.94,9.62s-11,15.23-11,27.09v112c0,11.85,3.64,20.71,11.15,27.08s19,9.63,34.1,9.63,26.5-3.23,33.93-9.62,11-15.23,11-27.09v-112c0-11.85-3.65-20.71-11.16-27.08S460.17,833.06,445.08,833.06Zm30.65,148.73c0,11.36-5.3,24.91-30.51,24.91s-30.51-13.55-30.51-24.91v-112c0-11.36,5.29-24.91,30.51-24.91s30.51,13.55,30.51,24.91Z" transform="translate(-215.82 -5.5)"/>
      <path class="cls-2" d="M583,1018.5a36.84,36.84,0,0,0,19.82-5.65,45.91,45.91,0,0,0,15-15.28l2.59-4.22,8.51,20.95h4.22v-177h-14.6V976.2c0,6.67-3.77,13.51-11.17,20.31S591.83,1006.7,583,1006.7s-15.35-2.3-18.91-6.85c-3.42-4.34-5.16-10.42-5.16-18.06V837.26h-14.6V981.79C544.33,1006.5,557,1018.5,583,1018.5Z" transform="translate(-215.82 -5.5)"/>
      <path class="cls-2" d="M735.9,844.86c8.17,0,17.91,3.65,17.91,21v16.82h13.76V867c0-22.82-10.09-33.92-30.83-33.92-12,0-20.58,7.61-26.2,23.28l-2.26,6.26-9.93-25.34h-4.19v177h14.6V888.82c0-13.92,2.75-24.77,8.17-32.27C722.54,848.79,728.93,844.86,735.9,844.86Z" transform="translate(-215.82 -5.5)"/>
    </g>
  </g>
</svg>
