<svg id="Livello_1" data-name="Livello 1" xmlns="http://www.w3.org/2000/svg" viewBox="0 0 48 34.96"><path d="M46.13,0H1.87A1.87,1.87,0,0,0,0,1.87V33.08A1.89,1.89,0,0,0,1.87,35H46.13A1.89,1.89,0,0,0,48,33.08V1.87A1.87,1.87,0,0,0,46.13,0ZM29.51,11.19H39.72v1.86H29.51Zm0,3.72h5.64v1.87H29.51Zm0,3.73H42.44V20.5H29.51Zm0,3.73H40.75v1.86H29.51Zm-25-4.52V8.79H3.23L5.34,5.13,7.45,8.79H6v7.38L9.37,12.3,11.09,16l3.68-7L18.11,20.3l4.77-3.58.71,1L17.45,22.3l-3-10.2-2.73,5.2,3,6.27H19.8l2.76-2.07.71.95L20.2,24.73H13.92L11,18.58,8.68,23,6,24.52v2.31H23.34V25.48l3.59,2.12-3.59,2.12V28.3H4.61V17.9ZM44,28H29.51V26.09H44ZM44,9.3H29.51V7.46H44Z"/><polygon points="10.39 17.24 9.07 14.43 6.03 17.96 6.03 23.15 7.83 22.12 10.39 17.24"/></svg>