<svg id="Livello_1" data-name="Livello 1" xmlns="http://www.w3.org/2000/svg" viewBox="0 0 498.19 243.71">
  <defs>
    <style>
      .cls-1 {
        fill: #f8f7f2;
      }

      .cls-2 {
        fill: #1d1d1b;
      }

      .cls-3 {
        fill: #183254;
      }

      .cls-4 {
        fill: #00ade6;
      }
    </style>
  </defs>
  <title>logo_or</title>
  <g>
    <g>
      <path class="cls-1" d="M246.89,336.65C222.19,377,127,387.19,80.21,377.25-9.9,358.13,0,269.86,41.3,210.22c36.09-52.09,112.78-99.65,168.84-39.64C243.82,206.63,267.74,302.55,246.89,336.65Z" transform="translate(-5.81 -140.29)"/>
      <path class="cls-2" d="M119.25,381.17c-14.42,0-28-1.17-39.12-3.54-32.58-6.91-54.09-23-63.93-47.8C9.52,313,8.68,292.4,13.76,270.25,18.46,249.76,27.87,228.92,41,210a184.09,184.09,0,0,1,44.91-45.13C105,151.56,125,143.81,143.73,142.44c25.25-1.84,47.7,7.54,66.69,27.88,16,17.1,30.89,49.26,38.92,83.94,8.32,35.93,7.53,66.81-2.12,82.59C236.15,355,209.4,368.93,171.91,376.2A282.94,282.94,0,0,1,119.25,381.17ZM149.89,143q-3,0-6.1.23c-27,2-70,20.75-102.17,67.22-13.06,18.84-22.43,39.58-27.11,60-5,22-4.21,42.44,2.41,59.12C26.66,354.09,48,370,80.29,376.88c24.38,5.17,60.29,4.61,91.48-1.44,37.27-7.23,63.83-21.07,74.79-39l.33.21-.33-.21c9.55-15.61,10.3-46.27,2-82-8-34.55-22.84-66.58-38.73-83.58C192.57,152.35,172.42,143,149.89,143Z" transform="translate(-5.81 -140.29)"/>
    </g>
    <path class="cls-3" d="M251.72,249.22c-8.11-27.55-22.93-57.28-38.67-77.59-16.61-21.43-37-32-60.65-31.32-12.29.34-24.68,3.78-36.63,9.32-32,10.51-62.34,37.93-80.94,64.87-26.94,39-36.11,84.93-23.35,117a70.23,70.23,0,0,0,28.64,33.92c9.45,5.95,20.73,10.35,33.65,13.09,21.75,4.62,56.65,7.9,89.38,3.25,15.77-2.24,29.46-6.11,40.94-11.46,22.44-7.51,38.4-19.6,46.73-35.74C264.52,308,258.87,273.49,251.72,249.22ZM202,364.9c-35.8,11.86-83.11,9.8-114.71,3.1-29.59-6.28-49.15-20.92-58.14-43.51C17.07,294.17,26,250.37,51.87,212.9c19.8-28.67,43.91-47.54,66-57.72A80,80,0,0,1,140.26,151a61.09,61.09,0,0,1,34.91,9.49,82.15,82.15,0,0,1,21,19.6c29.72,38.34,59.18,114.15,37.2,156.73C226.93,349.3,215.77,358.44,202,364.9ZM16.84,329.36C4.77,299,13.7,255.24,39.57,217.77A189.32,189.32,0,0,1,61,192a189.15,189.15,0,0,0-13.87,17.65c-26.93,39-36.1,84.93-23.34,117a70.23,70.23,0,0,0,28.64,33.92c9.45,5.95,20.72,10.35,33.65,13.09A255.46,255.46,0,0,0,115.92,378,261.5,261.5,0,0,1,75,372.86C45.38,366.59,25.82,352,16.84,329.36ZM245.7,331.9a55.32,55.32,0,0,1-12.42,15.83,58.26,58.26,0,0,0,5.24-8.31c13.7-26.55,8.06-61.06.9-85.33-8.11-27.55-22.93-57.28-38.67-77.59-13.38-17.26-29.23-27.45-47.25-30.42a61.1,61.1,0,0,1,34,9.49,82.12,82.12,0,0,1,21,19.6C238.21,213.51,267.68,289.32,245.7,331.9Z" transform="translate(-5.81 -140.29)"/>
    <path class="cls-4" d="M56.9,327C17.31,279.79,69.15,199.79,110,172.17c53.18-36,90.68,15.22,105.9,61.72,11,33.47,28.66,91-13.79,110.85C161.63,363.65,87.78,363.84,56.9,327Z" transform="translate(-5.81 -140.29)"/>
    <path class="cls-3" d="M195.18,258.38a5.27,5.27,0,0,0-7.31-1.22l-55.5,39.46L88.89,263.18a5.25,5.25,0,0,0-6.44,8.3l44.91,35.14h0l.29.4a5.23,5.23,0,0,0,4.27,2.19,5.33,5.33,0,0,0,3.07-1l59-42.54A5.27,5.27,0,0,0,195.18,258.38Z" transform="translate(-5.81 -140.29)"/>
    <g>
      <g>
        <path class="cls-3" d="M320.67,262.27H283.45v-82h36v7.57H292.28v29h22.09v7.57H292.28V254.7h28.39Z" transform="translate(-5.81 -140.29)"/>
        <path class="cls-3" d="M378.71,262.27h-3.78l-3.28-8.07a20.8,20.8,0,0,1-6.94,7.25,17.37,17.37,0,0,1-9.47,2.72q-18.17,0-18.16-17.67V233.89q0-17.67,18.16-17.67h14.64V195.53a8.88,8.88,0,0,0-2.9-7.07q-2.91-2.52-8.58-2.52-11.23,0-11.23,9.59V203h-8.83V196q0-8.44,5-13.06t15.08-4.6q10.1,0,15.2,4.6T378.71,196Zm-8.83-38.48H355.24q-5.3,0-7.31,2.65t-2,7.45V246.5q0,4.8,2,7.44t7.31,2.66a14.46,14.46,0,0,0,9.85-4.1q4.53-4.11,4.79-8.14Z" transform="translate(-5.81 -140.29)"/>
        <path class="cls-3" d="M442.81,246.5q0,17.67-21.32,17.67T400.16,246.5V235.78H409V247a8.56,8.56,0,0,0,3.15,7.07q3.15,2.52,9.34,2.52t9.33-2.52a8.37,8.37,0,0,0,3.16-6.89,20.66,20.66,0,0,0-1-6.93,15.67,15.67,0,0,0-3.85-5.49L407,213.07a23,23,0,0,1-5.37-7.64,26.26,26.26,0,0,1-1.45-9.4q0-8.44,5.24-13.06t15.83-4.6q20.32,0,20.32,17.66v10.73h-8.84V195.53a8.8,8.8,0,0,0-3-7.07q-3-2.52-8.89-2.52c-4,0-6.92.84-8.9,2.52a8.62,8.62,0,0,0-3,6.94,21.68,21.68,0,0,0,.88,6.94,13.8,13.8,0,0,0,3.91,5.3l22.58,21.7a24.81,24.81,0,0,1,5.05,7.76A27.1,27.1,0,0,1,442.81,246.5Z" transform="translate(-5.81 -140.29)"/>
        <path class="cls-3" d="M487.09,262.27h-8.83V239.06q-17.16-1.91-17.16-17.42V180.26h8.83v41.38q0,10.11,12.62,10.1t12.62-10.1V180.26H504v41.38q0,15.53-16.91,17.42Z" transform="translate(-5.81 -140.29)"/>
      </g>
      <polygon class="cls-3" points="315.64 208.76 315.64 133.04 309.39 133.04 309.39 167.78 283.66 167.78 283.66 133.04 277.41 133.04 277.41 208.76 283.66 208.76 283.66 172.83 309.39 172.83 309.39 208.76 315.64 208.76"/>
      <path class="cls-3" d="M365,271.53c-6.45,0-11.33,1.38-14.51,4.11s-4.72,6.52-4.72,11.59v47.92c0,5.06,1.56,8.85,4.77,11.58s8.13,4.12,14.58,4.12,11.34-1.39,14.52-4.12,4.72-6.51,4.72-11.58V287.23c0-5.07-1.56-8.86-4.77-11.59S371.44,271.53,365,271.53Zm13.11,63.62c0,4.86-2.26,10.65-13,10.65S352,340,352,335.15V287.23c0-4.86,2.27-10.66,13.05-10.66s13,5.8,13,10.66Z" transform="translate(-5.81 -140.29)"/>
      <path class="cls-3" d="M424,350.85a15.81,15.81,0,0,0,8.48-2.42,19.51,19.51,0,0,0,6.42-6.54l1.1-1.8,3.65,9h1.8V273.32h-6.25v59.43c0,2.86-1.6,5.78-4.77,8.69A15.19,15.19,0,0,1,424,345.8c-3.84,0-6.57-1-8.09-2.93a12.26,12.26,0,0,1-2.2-7.72V273.32h-6.25v61.83C407.44,345.71,412.85,350.85,424,350.85Z" transform="translate(-5.81 -140.29)"/>
      <path class="cls-3" d="M489.38,276.57c3.5,0,7.66,1.56,7.66,9v7.2h5.89V286c0-9.76-4.32-14.5-13.19-14.5-5.13,0-8.8,3.25-11.21,10l-1,2.68-4.25-10.84h-1.79v75.73h6.24V295.38c0-6,1.18-10.6,3.5-13.81S486.4,276.57,489.38,276.57Z" transform="translate(-5.81 -140.29)"/>
    </g>
  </g>
</svg>
